PathFileType   4   (X/Y/Z)
DataRate	CameraRate	NumFrames	NumMarkers	Units	OrigDataRate	OrigDataStartFrame	OrigNumFrames
120.0	120.0	4	37	mm	120.0	56	110
Frame#	Time	midhip	hip_r	hip_l	knee_r	knee_l	ankle_r	ankle_l	midasis	asis_r	asis_l	psis_r	psis_l	epicondLat_r	epicondLat_l	epicondMed_r	epicondMed_l	malleolusLat_r	malleolusLat_l	malleolusMedv_r	malleolusMedv_l	neck	subclavicle_r	subclavicle_l	sternalnotch	xyphoidprocess	thighwand_r	thighwand_l	upperleg1_r	upperleg1_l	upperleg2_r	upperleg2_l	shankwand_r	shankwand_l	lowerleg1_r	lowerleg1_l	toe_r	toe_l
 	 	X1	Y1	Z1	X2	Y2	Z2	X3	Y3	Z3	X4	Y4	Z4	X5	Y5	Z5	X6	Y6	Z6	X7	Y7	Z7	X8	Y8	Z8	X9	Y9	Z9	X10	Y10	Z10	X11	Y11	Z11	X12	Y12	Z12	X13	Y13	Z13	X14	Y14	Z14	X15	Y15	Z15	X16	Y16	Z16	X17	Y17	Z17	X18	Y18	Z18	X19	Y19	Z19	X20	Y20	Z20	X21	Y21	Z21	X22	Y22	Z22	X23	Y23	Z23	X24	Y24	Z24	X25	Y25	Z25	X26	Y26	Z26	X27	Y27	Z27	X28	Y28	Z28	X29	Y29	Z29	X30	Y30	Z30	X31	Y31	Z31	X32	Y32	Z32	X33	Y33	Z33	X34	Y34	Z34	X35	Y35	Z35	X36	Y36	Z36	X37	Y37	Z37

	56	0.59167	554.563	812.763	-238.770	553.903	792.708	-174.894	550.878	790.843	-292.312	469.944	423.913	-169.307	718.924	466.110	-283.644	201.018	131.228	-174.851	752.900	65.163	-290.179	609.317	873.871	-230.412	603.510	874.028	-130.857	615.124	873.714	-329.966	448.981	898.435	-220.878	452.501	895.869	-275.767	474.348	423.741	-114.484	736.748	473.975	-334.542	475.429	423.792	-227.567	723.066	447.019	-243.312	191.673	139.123	-138.347	761.832	66.530	-327.603	222.660	133.140	-203.189	772.918	77.636	-262.467	511.798	1313.169	-215.456	617.049	1234.822	-185.543	596.298	1236.511	-292.073	591.517	1247.412	-240.815	637.703	1078.368	-251.554	650.350	571.346	-161.178	757.590	669.894	-245.633	579.861	632.773	-123.370	692.686	681.098	-321.831	555.702	550.961	-124.404	735.816	604.482	-312.610	266.539	234.703	-67.754	725.892	179.970	-392.909	271.459	236.946	-109.141	735.390	185.747	-351.066	274.582	47.218	-143.257	881.445	41.819	-296.626
	57	0.60000	566.863	813.425	-240.449	566.171	793.254	-176.553	563.349	791.981	-293.984	488.376	422.611	-167.940	729.483	466.696	-283.578	211.677	138.214	-172.704	753.090	65.105	-290.370	621.373	874.907	-231.560	615.394	874.531	-131.941	627.352	875.283	-331.179	461.009	898.738	-221.838	464.550	896.620	-276.753	492.282	423.066	-113.081	747.690	474.370	-334.371	494.149	421.638	-225.550	733.402	447.689	-243.748	202.508	146.525	-136.247	763.241	66.329	-327.487	233.799	139.389	-200.550	773.953	77.215	-262.206	522.760	1314.119	-216.734	628.247	1235.914	-186.481	607.867	1237.375	-292.926	602.766	1248.407	-241.803	649.476	1079.394	-252.084	666.680	572.666	-159.641	769.195	670.522	-245.596	595.138	633.096	-122.966	705.341	682.237	-321.786	572.058	550.964	-123.263	747.855	605.246	-312.459	279.850	240.075	-65.982	732.391	180.393	-393.726	285.189	242.246	-107.116	741.273	185.850	-351.639	279.516	49.301	-143.058	882.568	40.613	-296.274
	58	0.60833	578.909	814.209	-242.047	578.113	793.922	-178.096	575.616	793.191	-295.539	507.740	421.346	-166.720	739.483	467.151	-283.778	223.717	145.250	-170.625	753.299	65.165	-290.475	633.223	875.995	-232.569	626.968	875.134	-132.893	639.478	876.856	-332.245	472.833	899.198	-222.845	476.468	897.543	-277.795	510.998	422.407	-111.826	757.828	474.540	-334.563	514.954	419.370	-223.947	741.731	447.483	-244.687	214.850	153.857	-134.162	764.234	66.156	-327.376	246.268	145.260	-198.038	774.564	77.035	-262.036	533.690	1315.107	-217.875	639.340	1237.097	-187.395	619.223	1238.322	-293.821	613.946	1249.470	-242.739	661.056	1080.502	-252.629	683.297	574.348	-157.775	780.744	670.896	-246.298	610.480	633.574	-121.923	717.381	682.508	-322.766	589.204	551.042	-121.872	758.710	604.692	-313.461	294.671	245.066	-64.197	737.562	180.685	-394.298	300.542	247.087	-105.028	745.690	186.232	-352.099	285.973	52.041	-142.695	883.393	39.808	-296.219
	59	0.61667	590.651	815.088	-243.549	589.705	794.699	-179.501	587.640	794.456	-296.954	527.906	420.210	-165.728	748.856	467.471	-284.211	237.061	152.278	-168.699	753.642	65.295	-290.460	644.846	877.111	-233.426	638.223	875.818	-133.701	651.470	878.404	-333.152	484.421	899.820	-223.886	488.222	898.638	-278.870	530.394	421.819	-110.808	767.106	474.486	-335.084	537.358	416.461	-221.692	750.283	447.436	-245.930	228.631	161.024	-132.166	764.904	66.000	-327.270	259.980	150.896	-195.904	774.807	76.893	-261.961	544.586	1316.105	-218.882	650.302	1238.410	-188.293	630.364	1239.388	-294.736	625.048	1250.603	-243.596	672.485	1081.742	-253.184	700.073	576.403	-155.710	792.154	671.011	-247.680	625.740	633.959	-120.590	728.699	682.402	-324.887	606.947	551.179	-120.063	769.013	604.156	-315.433	310.941	249.584	-62.470	741.375	180.892	-394.622	317.211	251.461	-103.029	748.799	186.651	-352.441	294.284	55.493	-142.044	883.972	39.271	-296.320
